<svg xmlns="http://www.w3.org/2000/svg" xmlns:xlink="http://www.w3.org/1999/xlink" width="1098.095" height="145.069" viewBox="0 0 1098.095 145.069">
  <defs>
    <clipPath id="clip-path">
      <path id="Path_2" data-name="Path 2" d="M244.171,138.941A61.368,61.368,0,0,1,257,145.84a35.209,35.209,0,0,1,12.167-2.174c.871,0,1.733.04,2.592.1-.419-3.081-4.2-7.886-9.747-11.453a47.359,47.359,0,0,0-17.838,6.624" transform="translate(-244.171 -132.317)" fill="#fff"/>
    </clipPath>
    <clipPath id="clip-path-2">
      <path id="Path_3" data-name="Path 3" d="M500.907,147.305c3.584,2.251,9.079,7.453,11.539,10.09a73.151,73.151,0,0,1,14.938-2.294c-1.949-3.357-5.828-7.867-10.53-12.4a76.056,76.056,0,0,0-15.947,4.6" transform="translate(-500.907 -142.703)" fill="#fff"/>
    </clipPath>
    <clipPath id="clip-path-3">
      <path id="Path_4" data-name="Path 4" d="M541.148,341.341q.1,1.312.1,2.635a35.218,35.218,0,0,1-3.2,14.641c3.827-2.862,9.321-4.93,14.333-6.12a47.766,47.766,0,0,0,.266-15.427,34.1,34.1,0,0,0-11.5,4.27" transform="translate(-538.047 -337.071)" fill="#fff"/>
    </clipPath>
    <clipPath id="clip-path-4">
      <path id="Path_6" data-name="Path 6" d="M191.1,309.913a37.725,37.725,0,0,1,12.364,11.35,33.225,33.225,0,0,1,3.144-14.542,49.609,49.609,0,0,0-12.51-8.677c-1.8,3.793-2.426,6.833-3,11.869" transform="translate(-191.102 -298.044)" fill="#fff"/>
    </clipPath>
    <clipPath id="clip-path-5">
      <path id="Path_5" data-name="Path 5" d="M191.023,359.287c.006-.095.009-.19.015-.285-.01.091-.014.187-.015.285" transform="translate(-191.023 -359.002)" fill="#fff"/>
    </clipPath>
  </defs>
  <g id="Medhub_global__White_logo" data-name="Medhub global _White logo" transform="translate(-436.985 -470.974)">
    <g id="Group_13" data-name="Group 13" transform="translate(436.985 470.974)">
      <path id="Path_1" data-name="Path 1" d="M143.894,59.474l-.671-3.688-3.616-.987a49.645,49.645,0,0,0-23.458-.661,47.052,47.052,0,0,0-7.082-11.659c7.969-2.127,17.387-2.986,28.5-2.044a72.523,72.523,0,0,0-130.075,0c11.118-.942,20.536-.083,28.505,2.044A47.035,47.035,0,0,0,28.92,54.136,49.653,49.653,0,0,0,5.463,54.8l-3.617.987-.671,3.688A72.54,72.54,0,1,0,145.069,72.534a73.1,73.1,0,0,0-1.175-13.061M107.957,72.534a35.613,35.613,0,0,1-19.116,31.453A37.762,37.762,0,0,1,107.86,69.9q.1,1.312.1,2.635M72.534,11.9a60.072,60.072,0,0,1,40.941,15.881,76.075,76.075,0,0,0-15.947,4.6,47.1,47.1,0,0,0-49.987,0,76.08,76.08,0,0,0-15.948-4.6A60.073,60.073,0,0,1,72.534,11.9M84.7,39.286a56.742,56.742,0,0,0-12.167,11.17,56.758,56.758,0,0,0-12.167-11.17,35.138,35.138,0,0,1,24.334,0M37.208,69.9A37.713,37.713,0,0,1,54.915,92.739a37.919,37.919,0,0,1,1.313,11.248A35.615,35.615,0,0,1,37.111,72.534q0-1.322.1-2.636m35.326,63.267A60.7,60.7,0,0,1,11.9,72.534a61.421,61.421,0,0,1,.408-7.071,37.557,37.557,0,0,1,13.4.165,47.67,47.67,0,0,0-.5,6.906,46.9,46.9,0,0,0,9.72,28.736,47.662,47.662,0,0,0,24.563,16.768l6.047,1.73,1.394-6.134A49.661,49.661,0,0,0,40.206,58.03a35.326,35.326,0,0,1,7.725-10.951C60.593,53.7,68.171,64.1,72.534,74.236,76.9,64.1,84.476,53.7,97.137,47.079a35.343,35.343,0,0,1,7.726,10.951,49.658,49.658,0,0,0-26.726,55.6l1.394,6.134,6.046-1.73a47.656,47.656,0,0,0,24.563-16.768,46.9,46.9,0,0,0,9.72-28.736,47.694,47.694,0,0,0-.5-6.906,37.539,37.539,0,0,1,13.4-.165,61.594,61.594,0,0,1,.408,7.071,60.7,60.7,0,0,1-60.631,60.631" transform="translate(0 0)" fill="#fff"/>
      <g id="Group_4" data-name="Group 4" transform="translate(47.541 25.762)">
        <g id="Group_3" data-name="Group 3" transform="translate(0 0)" clip-path="url(#clip-path)">
          <rect id="Rectangle_2" data-name="Rectangle 2" width="28.259" height="29.72" transform="translate(-6.689 7.753) rotate(-49.214)" fill="#fff"/>
        </g>
      </g>
      <g id="Group_6" data-name="Group 6" transform="translate(97.528 27.785)">
        <g id="Group_5" data-name="Group 5" transform="translate(0)" clip-path="url(#clip-path-2)">
          <rect id="Rectangle_3" data-name="Rectangle 3" width="29.927" height="27.836" transform="translate(-7.115 5.518) rotate(-37.794)" fill="#fff"/>
        </g>
      </g>
      <g id="Group_8" data-name="Group 8" transform="translate(104.759 65.629)">
        <g id="Group_7" data-name="Group 7" transform="translate(0 0)" clip-path="url(#clip-path-3)">
          <rect id="Rectangle_4" data-name="Rectangle 4" width="21.782" height="25.511" transform="matrix(0.934, -0.356, 0.356, 0.934, -7.168, 2.731)" fill="#fff"/>
        </g>
      </g>
      <g id="Group_12" data-name="Group 12" transform="translate(37.208 58.03)">
        <g id="Group_11" data-name="Group 11" transform="translate(0)" clip-path="url(#clip-path-4)">
          <rect id="Rectangle_6" data-name="Rectangle 6" width="25.013" height="18.352" transform="matrix(0.128, -0.992, 0.992, 0.128, -2.947, 22.839)" fill="#fff"/>
        </g>
      </g>
      <g id="Group_10" data-name="Group 10" transform="translate(37.193 69.899)">
        <g id="Group_9" data-name="Group 9" transform="translate(0)" clip-path="url(#clip-path-5)">
          <rect id="Rectangle_5" data-name="Rectangle 5" width="0.284" height="0.052" transform="matrix(0.128, -0.992, 0.992, 0.128, -0.036, 0.28)" fill="#fff"/>
        </g>
      </g>
    </g>
    <text id="medhub_global" data-name="medhub global" transform="translate(645.08 574.256)" fill="#fff" font-size="107" font-family="Gotham-Medium, Gotham" letter-spacing="0.06em" font-weight="500"><tspan x="0" y="0">medhub global</tspan></text>
  </g>
</svg>
